<svg xmlns="http://www.w3.org/2000/svg" version="1.1" xmlns:xlink="http://www.w3.org/1999/xlink" xmlns:svgjs="http://svgjs.com/svgjs" width="512.000000pt" height="512.000000pt"><svg version="1.0" xmlns="http://www.w3.org/2000/svg" width="512.000000pt" height="512.000000pt" viewBox="0 0 512.000000 512.000000" preserveAspectRatio="xMidYMid meet">
<metadata>
Created by potrace 1.14, written by Peter Selinger 2001-2017
</metadata>
<g transform="translate(0.000000,512.000000) scale(0.100000,-0.100000)" fill="#000000" stroke="none" style="--darkreader-inline-fill: #000000; --darkreader-inline-stroke: none;" data-darkreader-inline-fill="" data-darkreader-inline-stroke="">
<path d="M2407 5054 c-1 -1 -39 -5 -83 -8 -45 -4 -93 -9 -105 -11 -204 -32
-189 -29 -269 -50 -197 -50 -356 -108 -520 -190 -148 -74 -141 -70 -313 -182
-373 -242 -719 -662 -910 -1103 -76 -175 -149 -426 -172 -587 -3 -21 -8 -49
-10 -63 -26 -151 -26 -584 0 -721 2 -9 6 -40 10 -70 4 -30 9 -57 11 -60 2 -4
6 -24 9 -45 4 -22 18 -82 32 -134 115 -425 354 -834 677 -1155 257 -255 525
-430 866 -562 167 -66 240 -61 282 16 15 27 20 507 6 527 -6 9 -20 9 -51 2
-52 -12 -264 -17 -326 -7 -26 4 -68 10 -94 13 -69 9 -147 41 -216 87 -88 59
-119 102 -200 282 -62 136 -138 233 -232 297 -66 46 -121 106 -117 128 8 42
93 53 192 25 122 -34 233 -124 323 -263 69 -106 145 -179 231 -222 66 -33 68
-33 202 -32 118 1 145 4 217 28 l81 26 17 72 c20 88 55 163 105 227 l39 49
-47 6 c-26 4 -65 9 -87 12 -328 45 -636 202 -789 403 -114 150 -198 372 -221
586 -3 28 -8 60 -11 72 -11 53 -4 302 11 380 33 172 112 339 213 453 19 20 29
41 26 50 -66 171 -62 396 9 608 19 57 23 62 51 64 17 0 38 2 46 2 87 8 396
-117 561 -227 31 -20 64 -37 74 -37 9 0 54 9 99 19 92 22 144 30 311 50 88 10
356 11 455 1 113 -12 200 -26 280 -45 30 -8 66 -16 80 -19 14 -2 30 -6 36 -8
10 -2 118 55 134 72 12 13 192 101 265 130 116 47 166 60 235 64 65 4 79 -2
95 -42 24 -57 51 -160 61 -232 17 -124 5 -268 -31 -371 l-15 -41 38 -47 c152
-184 225 -396 224 -649 -1 -314 -74 -595 -203 -786 -53 -77 -157 -180 -231
-229 -145 -95 -337 -174 -491 -201 -15 -3 -35 -7 -45 -10 -9 -2 -39 -7 -67
-11 -65 -8 -119 -16 -122 -19 -1 -1 9 -15 24 -31 58 -68 98 -150 124 -260 8
-34 13 -189 14 -486 1 -405 3 -437 20 -467 41 -69 108 -74 255 -18 271 104
527 254 735 429 76 65 275 266 312 315 15 20 30 39 33 42 41 41 178 240 230
335 18 33 39 67 45 75 16 20 117 248 148 335 23 62 74 234 82 275 1 8 6 35 11
60 4 25 8 47 9 50 26 109 39 277 39 485 1 154 -10 340 -19 355 -2 3 -6 28 -10
54 -18 152 -94 420 -167 586 -251 573 -676 1021 -1225 1293 -60 30 -124 60
-143 67 -19 7 -39 16 -45 20 -37 26 -372 119 -505 140 -41 7 -82 14 -90 15
-64 12 -492 28 -503 19z"></path>
</g>
</svg><style>@media (prefers-color-scheme: light) { :root { filter: none; } }
</style></svg>